<svg width="450" height="120" viewBox="0 0 450 120" fill="none" xmlns="http://www.w3.org/2000/svg">
<path d="M41 27V77L84 52L41 27Z" fill="#E11D48"/>
<path d="M51 42V92L94 67L51 42Z" stroke="white" stroke-width="8" stroke-linecap="round" stroke-linejoin="round"/>
<path d="M136.592 86.768C133.008 86.768 129.723 85.9787 126.736 84.4C123.792 82.7787 121.424 80.368 119.632 77.168C117.84 73.968 116.944 70.0427 116.944 65.392C116.944 61.936 117.456 58.864 118.48 56.176C119.547 53.4453 120.997 51.1413 122.832 49.264C124.667 47.3867 126.757 45.9573 129.104 44.976C131.493 43.9947 134.011 43.504 136.656 43.504C139.344 43.504 141.755 44.0373 143.888 45.104C146.021 46.1707 147.792 47.4507 149.2 48.944L144.208 54.64C143.184 53.6587 142.075 52.9333 140.88 52.464C139.685 51.952 138.341 51.696 136.848 51.696C135.013 51.696 133.307 52.2507 131.728 53.36C130.192 54.4267 128.955 55.9627 128.016 57.968C127.077 59.9733 126.608 62.3413 126.608 65.072C126.608 67.9307 127.056 70.384 127.952 72.432C128.848 74.4373 130.085 75.9733 131.664 77.04C133.285 78.1067 135.141 78.64 137.232 78.64C138.853 78.64 140.304 78.2987 141.584 77.616C142.864 76.9333 143.995 76.1227 144.976 75.184L149.712 80.752C147.92 82.7573 145.936 84.272 143.76 85.296C141.584 86.2773 139.195 86.768 136.592 86.768ZM155.41 86V54.256H163.09L163.73 59.824H163.986C165.138 57.6907 166.503 56.112 168.082 55.088C169.703 54.0213 171.346 53.488 173.01 53.488C173.906 53.488 174.653 53.552 175.25 53.68C175.847 53.7653 176.359 53.9147 176.786 54.128L174.994 62.128C174.482 62 173.991 61.9147 173.522 61.872C173.053 61.7867 172.477 61.744 171.794 61.744C170.599 61.744 169.341 62.1707 168.018 63.024C166.738 63.8773 165.671 65.392 164.818 67.568V86H155.41ZM180.91 86V54.256H190.318V86H180.91ZM185.582 49.584C184.003 49.584 182.723 49.136 181.742 48.24C180.761 47.344 180.27 46.1493 180.27 44.656C180.27 43.1627 180.761 41.968 181.742 41.072C182.723 40.176 184.003 39.728 185.582 39.728C187.161 39.728 188.441 40.176 189.422 41.072C190.403 41.968 190.894 43.1627 190.894 44.656C190.894 46.1493 190.403 47.344 189.422 48.24C188.441 49.136 187.161 49.584 185.582 49.584ZM198.598 97.776V54.256H206.278L206.918 57.392H207.174C208.411 56.24 209.819 55.3013 211.398 54.576C212.976 53.8507 214.576 53.488 216.198 53.488C218.758 53.488 220.955 54.1493 222.79 55.472C224.667 56.7947 226.096 58.672 227.078 61.104C228.102 63.536 228.614 66.3733 228.614 69.616C228.614 73.2427 227.974 76.336 226.694 78.896C225.414 81.456 223.75 83.4187 221.702 84.784C219.696 86.1067 217.542 86.768 215.238 86.768C213.915 86.768 212.592 86.4907 211.27 85.936C209.99 85.3387 208.795 84.5067 207.686 83.44L208.006 88.496V97.776H198.598ZM213.062 79.088C214.128 79.088 215.11 78.768 216.006 78.128C216.944 77.488 217.67 76.4853 218.182 75.12C218.694 73.712 218.95 71.92 218.95 69.744C218.95 67.824 218.736 66.2453 218.31 65.008C217.926 63.728 217.328 62.768 216.518 62.128C215.707 61.488 214.683 61.168 213.446 61.168C212.507 61.168 211.59 61.4027 210.694 61.872C209.84 62.2987 208.944 63.024 208.006 64.048V77.04C208.859 77.7653 209.712 78.2987 210.566 78.64C211.462 78.9387 212.294 79.088 213.062 79.088ZM244.317 86.768C242.226 86.768 240.071 86.3627 237.853 85.552C235.634 84.7413 233.735 83.568 232.157 82.032L236.125 76.72C237.575 77.872 239.005 78.6827 240.413 79.152C241.863 79.5787 243.25 79.792 244.573 79.792C245.981 79.792 247.005 79.5573 247.645 79.088C248.285 78.576 248.605 77.9147 248.605 77.104C248.605 76.3787 248.306 75.7813 247.708 75.312C247.154 74.8427 246.407 74.4373 245.469 74.096C244.573 73.712 243.549 73.3067 242.397 72.88C240.861 72.3253 239.453 71.6213 238.173 70.768C236.893 69.9147 235.847 68.8907 235.036 67.696C234.269 66.5013 233.885 65.072 233.885 63.408C233.885 60.4213 234.994 58.032 237.213 56.24C239.474 54.4053 242.418 53.488 246.045 53.488C248.349 53.488 250.439 53.872 252.317 54.64C254.237 55.3653 255.879 56.3253 257.245 57.52L253.213 62.768C252.061 61.9573 250.909 61.3813 249.757 61.04C248.605 60.656 247.474 60.464 246.365 60.464C245.127 60.464 244.21 60.6987 243.613 61.168C243.015 61.6373 242.717 62.2347 242.717 62.96C242.717 63.5573 242.93 64.0693 243.357 64.496C243.783 64.9227 244.423 65.328 245.277 65.712C246.173 66.0533 247.282 66.4373 248.605 66.864C250.226 67.4187 251.698 68.1227 253.021 68.976C254.386 69.7867 255.453 70.8107 256.221 72.048C256.989 73.2853 257.373 74.7787 257.373 76.528C257.373 78.448 256.861 80.176 255.837 81.712C254.855 83.248 253.405 84.4853 251.485 85.424C249.565 86.32 247.175 86.768 244.317 86.768ZM266.868 98.416C265.929 98.416 265.097 98.352 264.372 98.224C263.689 98.096 263.028 97.904 262.388 97.648L264.052 90.736C264.521 90.864 264.905 90.928 265.204 90.928C265.545 90.9707 265.865 90.992 266.164 90.992C267.742 90.992 268.958 90.5867 269.812 89.776C270.708 89.008 271.348 88.0267 271.732 86.832L272.18 85.168L259.956 54.256H269.428L273.972 67.888C274.441 69.3387 274.868 70.8107 275.252 72.304C275.636 73.7973 276.041 75.3333 276.468 76.912H276.724C277.065 75.4187 277.406 73.9253 277.748 72.432C278.132 70.896 278.516 69.3813 278.9 67.888L282.74 54.256H291.764L280.756 86.32C279.732 88.9653 278.622 91.184 277.428 92.976C276.276 94.768 274.846 96.112 273.14 97.008C271.476 97.9467 269.385 98.416 266.868 98.416Z" fill="white"/>
<path d="M323.502 88.592C320.049 88.592 317.705 87.6053 316.472 85.632C315.239 83.6587 314.622 81.0933 314.622 77.936V55.292H309.072V52.776L314.696 52.48L315.14 40.714H317.952V52.48H328.238V55.292H317.952V78.158C317.952 80.4273 318.347 82.2773 319.136 83.708C319.925 85.0893 321.529 85.78 323.946 85.78C324.637 85.78 325.327 85.706 326.018 85.558C326.758 85.3607 327.547 85.0647 328.386 84.67L329.422 86.964C328.485 87.4573 327.498 87.852 326.462 88.148C325.426 88.444 324.439 88.592 323.502 88.592ZM344.261 88L330.941 52.48H334.493L342.485 74.754C343.027 76.4313 343.619 78.158 344.261 79.934C344.902 81.6607 345.494 83.338 346.037 84.966H346.333C346.925 83.338 347.517 81.6607 348.109 79.934C348.75 78.158 349.367 76.4313 349.959 74.754L357.951 52.48H361.281L348.109 88H344.261Z" fill="white"/>
</svg>
